<svg xmlns="http://www.w3.org/2000/svg" width="30.964" height="26.866" viewBox="0 0 30.964 26.866">
  <g id="Group_528" data-name="Group 528" transform="translate(-45.661 -769.133)">
    <g id="Obszar_roboczy_1_kopia_6" data-name="Obszar roboczy 1 kopia 6" transform="translate(29.831 744.635)">
      <rect id="Rectangle_218" data-name="Rectangle 218" width="30.964" height="3.643" rx="1.821" transform="translate(15.83 35.882)" fill="gray"/>
      <g id="Group_279" data-name="Group 279" transform="translate(23.019 24.498)">
        <rect id="Rectangle_219" data-name="Rectangle 219" width="2.429" height="13.357" rx="1.214" transform="translate(5.912 0.002) rotate(26.27)" fill="gray"/>
        <rect id="Rectangle_220" data-name="Rectangle 220" width="2.429" height="13.357" rx="1.214" transform="translate(16.591 11.977) rotate(153.73)" fill="gray"/>
      </g>
      <path id="Path_153" data-name="Path 153" d="M48.613,62H25.845a1.588,1.588,0,0,0-1.518,1.648l2.429,12.185a1.588,1.588,0,0,0,1.518,1.648H46.488a1.588,1.588,0,0,0,1.518-1.648L50.13,63.648A1.588,1.588,0,0,0,48.613,62ZM30.6,73.663a.48.48,0,0,1-.48.48H28.957a.48.48,0,0,1-.48-.48v-6.6a.48.48,0,0,1,.48-.48h1.166a.48.48,0,0,1,.48.48Zm3.946,0a.48.48,0,0,1-.48.48H32.9a.48.48,0,0,1-.48-.48v-6.6a.48.48,0,0,1,.48-.48h1.166a.48.48,0,0,1,.48.48Zm3.946,0a.48.48,0,0,1-.48.48H36.849a.48.48,0,0,1-.48-.48v-6.6a.48.48,0,0,1,.48-.48h1.166a.48.48,0,0,1,.48.48Zm3.643,0a.48.48,0,0,1-.48.48H40.492a.48.48,0,0,1-.48-.48v-6.6a.48.48,0,0,1,.48-.48h1.166a.48.48,0,0,1,.48.48Zm3.946,0a.48.48,0,0,1-.48.48H44.439a.48.48,0,0,1-.48-.48v-6.6a.48.48,0,0,1,.48-.48H45.6a.48.48,0,0,1,.48.48Z" transform="translate(-5.917 -26.118)" fill="gray"/>
    </g>
  </g>
</svg>
