<svg id="bike" xmlns="http://www.w3.org/2000/svg" width="21.17" height="18.072" viewBox="0 0 21.17 18.072">
  <g id="Group_369" data-name="Group 369" transform="translate(0)">
    <rect id="Rectangle_347" data-name="Rectangle 347" width="10.343" height="0.848" rx="0.424" transform="translate(2.713 17.224)" fill="#10b981"/>
    <rect id="Rectangle_348" data-name="Rectangle 348" width="5.935" height="0.848" rx="0.424" transform="translate(1.696 13.815)" fill="#10b981"/>
    <rect id="Rectangle_349" data-name="Rectangle 349" width="5.087" height="0.848" rx="0.424" transform="translate(3.567 15.529)" fill="#10b981"/>
    <rect id="Rectangle_350" data-name="Rectangle 350" width="2.883" height="0.848" rx="0.424" transform="translate(0 15.529)" fill="#10b981"/>
    <path id="Path_265" data-name="Path 265" d="M56.308,33A9.032,9.032,0,0,0,48.2,45.954h.617a.34.34,0,0,1,.34.341v.17a.34.34,0,0,1-.34.341h-.146a8.846,8.846,0,0,0,.6.852h.5a.34.34,0,0,1,.34.341v.17a.539.539,0,0,1-.144.356,8.369,8.369,0,0,0,1.1.837h3.123a.34.34,0,0,1,.34.341v.17a.34.34,0,0,1-.34.341H52.522A9.025,9.025,0,1,0,56.308,33Z" transform="translate(-44.171 -33)" fill="#10b981"/>
    <rect id="Rectangle_351" data-name="Rectangle 351" width="2.883" height="0.678" rx="0.339" transform="translate(0 12.28)" fill="#10b981"/>
  </g>
  <ellipse id="Ellipse_257" data-name="Ellipse 257" cx="1.102" cy="1.102" rx="1.102" ry="1.102" transform="translate(13.143 3.063)" fill="#fff"/>
  <path id="Path_267" data-name="Path 267" d="M83.92,69.1a.475.475,0,0,1-.339.509.483.483,0,0,1-.509-.509q-.085-1.613-.17-3.222L80.529,64.52a1.251,1.251,0,0,1-.339-.848c.027-.436.365-.643,1.526-1.526,1.356-1.017,1.6-1.245,2.035-1.187a1.61,1.61,0,0,1,1.017.678l1.356,2.035h2.035a.448.448,0,0,1,.339.339.461.461,0,0,1-.339.509H85.786l-1.526-1.865-2.035,1.187L84.09,65.2Q84.007,67.14,83.92,69.1Z" transform="translate(-71.456 -56.164)" fill="#fff"/>
  <path id="Path_268" data-name="Path 268" d="M61.54,90.27a2.84,2.84,0,1,1,2.84-2.84A2.84,2.84,0,0,1,61.54,90.27Zm0-5.172a2.331,2.331,0,1,0,2.331,2.331A2.331,2.331,0,0,0,61.54,85.1Z" transform="translate(-53.62 -75.776)" fill="#fff"/>
  <rect id="Rectangle_352" data-name="Rectangle 352" width="2.786" height="3.052" transform="matrix(0.588, 0.809, -0.809, 0.588, 10.068, 1.976)" fill="#fff"/>
  <path id="Path_415" data-name="Path 415" d="M61.54,90.27a2.84,2.84,0,1,1,2.84-2.84A2.84,2.84,0,0,1,61.54,90.27Zm0-5.172a2.331,2.331,0,1,0,2.331,2.331A2.331,2.331,0,0,0,61.54,85.1Z" transform="translate(-45.62 -75.554)" fill="#fff"/>
</svg>
