<svg xmlns="http://www.w3.org/2000/svg" width="21.935" height="18" viewBox="0 0 21.935 18">
  <g id="bike" transform="translate(-28.8 -33)">
    <g id="Group_369" data-name="Group 369" transform="translate(28.8 33)">
      <rect id="Rectangle_347" data-name="Rectangle 347" width="10.732" height="0.88" rx="0.44" transform="translate(2.815 17.12)" fill="#10b981"/>
      <rect id="Rectangle_348" data-name="Rectangle 348" width="6.158" height="0.88" rx="0.44" transform="translate(1.759 13.731)" fill="#10b981"/>
      <rect id="Rectangle_349" data-name="Rectangle 349" width="5.278" height="0.88" rx="0.44" transform="translate(3.695 15.361)" fill="#10b981"/>
      <rect id="Rectangle_350" data-name="Rectangle 350" width="2.991" height="0.88" rx="0.44" transform="translate(0 15.361)" fill="#10b981"/>
      <path id="Path_265" data-name="Path 265" d="M56.63,33a9.408,9.408,0,0,0-7.893,4.212,8.724,8.724,0,0,0-.5,8.69h.639a.346.346,0,0,1,.352.34v.17a.346.346,0,0,1-.352.34H48.72a8.818,8.818,0,0,0,.625.849h.514a.346.346,0,0,1,.352.34v.17a.336.336,0,0,1-.141.27A9.173,9.173,0,0,0,51.2,49.3h3.235a.346.346,0,0,1,.352.34v.17a.346.346,0,0,1-.352.34H52.709a9.584,9.584,0,0,0,10.353-1.6,8.777,8.777,0,0,0,2.26-9.88A9.33,9.33,0,0,0,56.63,33Z" transform="translate(-44.053 -33)" fill="#10b981"/>
      <rect id="Rectangle_351" data-name="Rectangle 351" width="2.991" height="0.704" rx="0.352" transform="translate(0 12.211)" fill="#10b981"/>
    </g>
    <circle id="Ellipse_257" data-name="Ellipse 257" cx="1.144" cy="1.144" r="1.144" transform="translate(42.416 36.033)" fill="#fff"/>
    <path id="Path_266" data-name="Path 266" d="M107.637,90.854a2.947,2.947,0,1,1,2.947-2.947A2.947,2.947,0,0,1,107.637,90.854Zm0-5.366a2.416,2.416,0,1,1,0,.007Z" transform="translate(-62.538 -43.288)" fill="#fff"/>
    <path id="Path_267" data-name="Path 267" d="M84.061,69.4a.493.493,0,0,1-.352.528.5.5,0,0,1-.528-.528q-.088-1.673-.176-3.343l-2.463-1.407a1.3,1.3,0,0,1-.352-.88c.028-.452.378-.667,1.583-1.583,1.407-1.056,1.659-1.291,2.111-1.232a1.67,1.67,0,0,1,1.056.7l1.407,2.111h2.111a.464.464,0,0,1,.352.352.479.479,0,0,1-.352.528H86l-1.583-1.935L82.3,63.951l1.935,1.407Q84.15,67.373,84.061,69.4Z" transform="translate(-42.349 -23.367)" fill="#fff"/>
    <path id="Path_268" data-name="Path 268" d="M61.647,90.484a2.947,2.947,0,1,1,2.947-2.947A2.947,2.947,0,0,1,61.647,90.484Zm0-5.366a2.419,2.419,0,1,0,2.419,2.419A2.419,2.419,0,0,0,61.647,85.118Z" transform="translate(-24.639 -42.979)" fill="#fff"/>
    <rect id="Rectangle_352" data-name="Rectangle 352" width="2.891" height="3.167" transform="matrix(0.588, 0.809, -0.809, 0.588, 39.233, 35.049)" fill="#fff"/>
  </g>
</svg>
