<svg id="Layer_1" data-name="Layer 1" xmlns="http://www.w3.org/2000/svg" viewBox="0 0 45.72 104.36">
  <g>
    <g>
      <g>
        <path d="M40.64,63c-11.78,0-21.36-8.17-21.36-18.22s9.58-18.22,21.36-18.22S62,34.73,62,44.78a1.78,1.78,0,0,1-3.52,0c0-8.39-8-15.22-17.84-15.22S22.8,36.39,22.8,44.78,30.8,60,40.64,60a1.52,1.52,0,1,1,.49,3A1.35,1.35,0,0,1,40.64,63Z" transform="translate(-17.78 -9.32)" fill="#10b981"/>
        <path d="M40.64,64.5C28,64.5,17.78,55.65,17.78,44.78S28,25.06,40.64,25.06,63.5,33.9,63.5,44.78a3.27,3.27,0,0,1-6.52,0c0-7.57-7.33-13.72-16.34-13.72S24.29,37.21,24.29,44.78,31.63,58.5,40.64,58.5a3,3,0,0,1,0,6Zm0-36.44c-11,0-19.86,7.5-19.86,16.72S29.69,61.5,40.64,61.5C30,61.5,21.29,54,21.29,44.78S30,28.06,40.64,28.06ZM60,44.75h.23a.41.41,0,0,0,.28-.09C60.51,35.53,51.58,28,40.63,28,51.29,28,60,35.52,60,44.73Z" transform="translate(-17.78 -9.32)" fill="#10b981"/>
      </g>
      <g>
        <path d="M40.64,96.44c-11.78,0-21.36-8.17-21.36-18.22a1.78,1.78,0,0,1,3.52,0c0,8.39,8,15.22,17.84,15.22s17.84-6.83,17.84-15.22S50.48,63,40.64,63a1.52,1.52,0,1,1-.49-3,1.35,1.35,0,0,1,.49,0C52.42,60,62,68.17,62,78.22S52.42,96.44,40.64,96.44Z" transform="translate(-17.78 -9.32)" fill="#10b981"/>
        <path d="M40.64,97.94C28,97.94,17.78,89.1,17.78,78.22a3.27,3.27,0,0,1,6.51,0c0,7.57,7.34,13.72,16.35,13.72S57,85.79,57,78.22,49.65,64.5,40.64,64.5a3,3,0,0,1,0-6c12.6,0,22.86,8.85,22.86,19.72S53.24,97.94,40.64,97.94ZM21,78.22a.5.5,0,0,0-.29.09c0,9.13,8.94,16.63,19.89,16.63-10.66,0-19.33-7.49-19.35-16.7C21.29,78.28,21.19,78.22,21,78.22ZM40.64,61.5C51.31,61.5,60,69,60,78.22S51.33,94.94,40.66,94.94c11,0,19.86-7.5,19.86-16.72S51.59,61.5,40.64,61.5Z" transform="translate(-17.78 -9.32)" fill="#10b981"/>
      </g>
    </g>
    <g>
      <path d="M35.67,112.17a1.64,1.64,0,0,1-1.76-1.5V12.33a1.78,1.78,0,0,1,3.51,0v98.34A1.64,1.64,0,0,1,35.67,112.17Z" transform="translate(-17.78 -9.32)" fill="#10b981"/>
      <path d="M35.67,113.67a3.14,3.14,0,0,1-3.26-3V12.33a3.27,3.27,0,0,1,6.51,0v98.34A3.15,3.15,0,0,1,35.67,113.67Zm-.24-3a1,1,0,0,0,.24,0,.42.42,0,0,0,.28-.1V12.35H35.7a.38.38,0,0,0-.29.1v98.22Z" transform="translate(-17.78 -9.32)" fill="#10b981"/>
    </g>
    <g>
      <path d="M46.78,112.17a1.65,1.65,0,0,1-1.76-1.5V12.33a1.78,1.78,0,0,1,3.52,0v98.34A1.65,1.65,0,0,1,46.78,112.17Z" transform="translate(-17.78 -9.32)" fill="#10b981"/>
      <path d="M46.78,113.67a3.15,3.15,0,0,1-3.26-3V12.33a3.27,3.27,0,0,1,6.52,0v98.34A3.14,3.14,0,0,1,46.78,113.67Zm-.23-3a.89.89,0,0,0,.23,0,.38.38,0,0,0,.29-.1V12.35h-.26a.42.42,0,0,0-.28.1v98.22Z" transform="translate(-17.78 -9.32)" fill="#10b981"/>
    </g>
  </g>
</svg>
