<svg id="dollar-green" xmlns="http://www.w3.org/2000/svg" width="7.408" height="16.909" viewBox="0 0 7.408 16.909">
  <g id="Group_421" data-name="Group 421" transform="translate(0 2.551)">
    <g id="Group_419" data-name="Group 419">
      <path id="Path_342" data-name="Path 342" d="M70.741,51.464a3.24,3.24,0,0,1-3.461-2.952,3.5,3.5,0,0,1,6.922,0,.288.288,0,0,1-.57,0,2.927,2.927,0,1,0-2.891,2.466.246.246,0,1,1,0,.486Z" transform="translate(-67.037 -45.317)" fill="#10b981"/>
      <path id="Path_343" data-name="Path 343" d="M69.484,50.45a3.479,3.479,0,0,1-3.7-3.2,3.745,3.745,0,0,1,7.408,0,.53.53,0,0,1-1.056,0,2.689,2.689,0,1,0-2.648,2.223.486.486,0,1,1,0,.972Zm0-5.9a3,3,0,0,0-3.218,2.709,3,3,0,0,0,3.218,2.709,2.952,2.952,0,0,1-3.135-2.709A2.952,2.952,0,0,1,69.484,44.546Zm3.137,2.7h.037a.066.066,0,0,0,.045-.015,3,3,0,0,0-3.221-2.695,2.948,2.948,0,0,1,3.134,2.706Z" transform="translate(-65.78 -44.06)" fill="#10b981"/>
    </g>
    <g id="Group_420" data-name="Group 420" transform="translate(0 5.418)">
      <path id="Path_344" data-name="Path 344" d="M70.741,84.888a3.24,3.24,0,0,1-3.461-2.952.288.288,0,0,1,.57,0,2.927,2.927,0,1,0,2.891-2.466.246.246,0,1,1,0-.486,2.99,2.99,0,1,1,0,5.9Z" transform="translate(-67.037 -78.74)" fill="#10b981"/>
      <path id="Path_345" data-name="Path 345" d="M69.484,83.89a3.481,3.481,0,0,1-3.7-3.2.53.53,0,0,1,1.055,0,2.691,2.691,0,1,0,2.649-2.223.486.486,0,0,1,0-.972,3.23,3.23,0,1,1,0,6.39ZM66.3,80.7a.078.078,0,0,0-.047.015A3,3,0,0,0,69.478,83.4,2.951,2.951,0,0,1,66.342,80.7C66.349,80.7,66.333,80.7,66.3,80.7Zm3.182-2.709a2.738,2.738,0,1,1,0,5.418,2.75,2.75,0,1,0,0-5.418Z" transform="translate(-65.78 -77.5)" fill="#10b981"/>
    </g>
  </g>
  <g id="Group_422" data-name="Group 422" transform="translate(2.37 0.009)">
    <path id="Path_346" data-name="Path 346" d="M82.2,46.265a.266.266,0,0,1-.285-.243V30.088a.288.288,0,0,1,.569,0V46.022A.266.266,0,0,1,82.2,46.265Z" transform="translate(-81.667 -29.608)" fill="#10b981"/>
    <path id="Path_347" data-name="Path 347" d="M80.938,45.272a.509.509,0,0,1-.528-.486V28.852a.53.53,0,0,1,1.055,0V44.786A.509.509,0,0,1,80.938,45.272Zm-.039-.486a.228.228,0,0,0,.039,0,.063.063,0,0,0,.045-.016V28.855h-.041a.065.065,0,0,0-.047.016V44.786l0-.006Z" transform="translate(-80.41 -28.373)" fill="#10b981"/>
  </g>
  <g id="Group_423" data-name="Group 423" transform="translate(4.171 0)">
    <path id="Path_348" data-name="Path 348" d="M93.305,46.238A.267.267,0,0,1,93.02,46V30.061a.288.288,0,0,1,.57,0V46A.267.267,0,0,1,93.305,46.238Z" transform="translate(-92.777 -29.573)" fill="#10b981"/>
    <path id="Path_349" data-name="Path 349" d="M92.048,45.224a.51.51,0,0,1-.528-.486V28.8a.53.53,0,0,1,1.056,0V44.738A.509.509,0,0,1,92.048,45.224Zm-.037-.486h.037a.065.065,0,0,0,.047-.016V28.807h-.042a.063.063,0,0,0-.045.016V44.738Z" transform="translate(-91.52 -28.316)" fill="#10b981"/>
  </g>
</svg>
