<svg xmlns="http://www.w3.org/2000/svg" width="45.72" height="104.357" viewBox="0 0 45.72 104.357">
  <g id="dollar-gray" transform="translate(-72.78 -26.316)">
    <g id="Group_416" data-name="Group 416">
      <g id="Group_414" data-name="Group 414">
        <path id="Path_334" data-name="Path 334" d="M95.64,80c-11.78,0-21.36-8.17-21.36-18.22s9.58-18.22,21.36-18.22S117,51.73,117,61.78a1.78,1.78,0,0,1-3.52,0c0-8.39-8-15.22-17.84-15.22S77.8,53.39,77.8,61.78,85.8,77,95.64,77a1.52,1.52,0,1,1,0,3Z" fill="gray"/>
        <path id="Path_335" data-name="Path 335" d="M95.64,81.5C83,81.5,72.78,72.65,72.78,61.78S83,42.06,95.64,42.06,118.5,50.9,118.5,61.78a3.27,3.27,0,0,1-6.52,0c0-7.57-7.33-13.72-16.34-13.72S79.29,54.21,79.29,61.78,86.63,75.5,95.64,75.5a3,3,0,0,1,0,6Zm0-36.44c-11,0-19.86,7.5-19.86,16.72S84.69,78.5,95.64,78.5C85,78.5,76.29,71,76.29,61.78S85,45.06,95.64,45.06ZM115,61.75a1.621,1.621,0,0,0,.23,0,.41.41,0,0,0,.28-.09c0-9.13-8.93-16.63-19.88-16.63,10.66,0,19.33,7.49,19.34,16.7Z" fill="gray"/>
      </g>
      <g id="Group_415" data-name="Group 415">
        <path id="Path_336" data-name="Path 336" d="M95.64,113.44c-11.78,0-21.36-8.17-21.36-18.22a1.78,1.78,0,0,1,3.52,0c0,8.39,8,15.22,17.84,15.22s17.84-6.83,17.84-15.22S105.48,80,95.64,80a1.52,1.52,0,1,1,0-3C107.42,77,117,85.17,117,95.22S107.42,113.44,95.64,113.44Z" fill="gray"/>
        <path id="Path_337" data-name="Path 337" d="M95.64,114.94c-12.61,0-22.86-8.84-22.86-19.72a3.27,3.27,0,0,1,6.51,0c0,7.57,7.34,13.72,16.35,13.72S112,102.79,112,95.22,104.65,81.5,95.64,81.5a3,3,0,0,1,0-6c12.6,0,22.86,8.85,22.86,19.72S108.24,114.94,95.64,114.94ZM76,95.22a.48.48,0,0,0-.29.09c0,9.13,8.94,16.63,19.89,16.63-10.66,0-19.33-7.49-19.35-16.7C76.29,95.28,76.19,95.22,76,95.22ZM95.64,78.5C106.31,78.5,115,86,115,95.22s-8.67,16.72-19.34,16.72c11,0,19.86-7.5,19.86-16.72S106.59,78.5,95.64,78.5Z" fill="gray"/>
      </g>
    </g>
    <g id="Group_417" data-name="Group 417">
      <path id="Path_338" data-name="Path 338" d="M90.67,129.17a1.64,1.64,0,0,1-1.76-1.5V29.33a1.78,1.78,0,0,1,3.51,0v98.34a1.64,1.64,0,0,1-1.75,1.5Z" fill="gray"/>
      <path id="Path_339" data-name="Path 339" d="M90.67,130.67a3.14,3.14,0,0,1-3.26-3V29.33a3.27,3.27,0,0,1,6.51,0v98.34A3.14,3.14,0,0,1,90.67,130.67Zm-.24-3a1.41,1.41,0,0,0,.24,0,.39.39,0,0,0,.28-.1V29.35H90.7a.4.4,0,0,0-.29.1v98.22l.02-.04Z" fill="gray"/>
    </g>
    <g id="Group_418" data-name="Group 418">
      <path id="Path_340" data-name="Path 340" d="M101.78,129.17a1.65,1.65,0,0,1-1.76-1.5V29.33a1.78,1.78,0,0,1,3.52,0v98.34A1.65,1.65,0,0,1,101.78,129.17Z" fill="gray"/>
      <path id="Path_341" data-name="Path 341" d="M101.78,130.67a3.15,3.15,0,0,1-3.26-3V29.33a3.27,3.27,0,0,1,6.52,0v98.34a3.14,3.14,0,0,1-3.26,3Zm-.23-3a1.439,1.439,0,0,0,.23,0,.4.4,0,0,0,.29-.1V29.35h-.26a.39.39,0,0,0-.28.1v98.22Z" fill="gray"/>
    </g>
  </g>
</svg>
