<svg id="Layer_1" data-name="Layer 1" xmlns="http://www.w3.org/2000/svg" viewBox="0 0 171 161">
  <g>
    <rect x="47" y="71.73" width="78" height="18.54" rx="3.87" fill="#10b981"/>
    <path d="M126.93,146.5H45.07A24.6,24.6,0,0,1,20.5,121.93V40.07A24.6,24.6,0,0,1,45.07,15.5h81.86A24.6,24.6,0,0,1,151.5,40.07v81.86A24.6,24.6,0,0,1,126.93,146.5ZM45.07,25.5A14.59,14.59,0,0,0,30.5,40.07v81.86A14.59,14.59,0,0,0,45.07,136.5h81.86a14.59,14.59,0,0,0,14.57-14.57V40.07A14.59,14.59,0,0,0,126.93,25.5Z" fill="#10b981"/>
  </g>
</svg>
