<svg id="Layer_1" data-name="Layer 1" xmlns="http://www.w3.org/2000/svg" viewBox="0 0 171 161">
  <g>
    <g>
      <rect x="46.75" y="71.48" width="78" height="18.54" rx="3.87" fill="#10b981"/>
      <rect x="46.75" y="71.48" width="78" height="18.54" rx="3.87" transform="translate(166.5 -5) rotate(90)" fill="#10b981"/>
    </g>
    <path d="M126.68,146.25H44.82a24.6,24.6,0,0,1-24.57-24.57V39.82A24.6,24.6,0,0,1,44.82,15.25h81.86a24.6,24.6,0,0,1,24.57,24.57v81.86A24.6,24.6,0,0,1,126.68,146.25Zm-81.86-121A14.59,14.59,0,0,0,30.25,39.82v81.86a14.59,14.59,0,0,0,14.57,14.57h81.86a14.59,14.59,0,0,0,14.57-14.57V39.82a14.59,14.59,0,0,0-14.57-14.57Z" fill="#10b981"/>
  </g>
</svg>
