<svg id="Layer_1" data-name="Layer 1" xmlns="http://www.w3.org/2000/svg" viewBox="0 0 171 161">
  <g>
    <g>
      <path d="M86.15,94.49h-.7c-12.85-.39-26.62-11.2-26.62-26.66a26.67,26.67,0,0,1,53.34,0c0,12.58-9.53,20.43-9.94,20.76A26.41,26.41,0,0,1,86.15,94.49ZM85.5,44.15A23.7,23.7,0,0,0,61.83,67.82c0,15,13.77,23.36,23.72,23.66a23.17,23.17,0,0,0,14.8-5.23c.08-.07,8.82-7.26,8.82-18.43A23.7,23.7,0,0,0,85.5,44.15Z" fill="#10b981"/>
      <path d="M86.15,95.49h-.73C72.1,95.07,57.83,83.86,57.83,67.82a27.67,27.67,0,0,1,55.34,0c0,13.05-9.89,21.2-10.31,21.54A27.51,27.51,0,0,1,86.15,95.49ZM85.5,42.15A25.7,25.7,0,0,0,59.83,67.82c0,14.88,13.27,25.28,25.65,25.66a25.5,25.5,0,0,0,16.13-5.68c.38-.31,9.56-7.88,9.56-20A25.7,25.7,0,0,0,85.5,42.15Zm.64,50.34h-.62c-10.35-.31-24.69-9.06-24.69-24.66a24.67,24.67,0,0,1,49.34,0c0,11.54-8.81,18.89-9.19,19.2A24.43,24.43,0,0,1,86.14,92.49ZM85.5,45.15A22.7,22.7,0,0,0,62.83,67.82c0,14.33,13.21,22.37,22.75,22.66a22.14,22.14,0,0,0,14.14-5c.08-.06,8.45-7,8.45-17.65A22.7,22.7,0,0,0,85.5,45.15Z" fill="#10b981"/>
    </g>
    <g>
      <path d="M107.33,119.85A1.51,1.51,0,0,1,106,119L94.44,92.56a1.5,1.5,0,1,1,2.75-1.2l11.51,26.39a1.49,1.49,0,0,1-.77,2A1.44,1.44,0,0,1,107.33,119.85Z" fill="#10b981"/>
      <path d="M107.33,120.85a2.51,2.51,0,0,1-2.3-1.5L93.52,93a2.5,2.5,0,1,1,4.58-2l11.52,26.39a2.5,2.5,0,0,1-2.29,3.5ZM95.81,91.46a.5.5,0,0,0-.46.7l11.52,26.39a.51.51,0,0,0,.66.26.5.5,0,0,0,.25-.66L96.27,91.76a.48.48,0,0,0-.28-.27A.66.66,0,0,0,95.81,91.46Z" fill="#10b981"/>
    </g>
    <g>
      <path d="M101.57,75.35a1.57,1.57,0,0,1-.7-.17,1.51,1.51,0,0,1-.63-2,13.95,13.95,0,0,0-10-20.3,1.5,1.5,0,0,1,.52-3c.9.15,8.89,1.76,12.51,9.57a17.57,17.57,0,0,1-.4,15.08A1.5,1.5,0,0,1,101.57,75.35Z" fill="#10b981"/>
      <path d="M101.57,76.35a2.5,2.5,0,0,1-2.21-3.67A12.95,12.95,0,0,0,90.1,53.84,2.5,2.5,0,0,1,91,48.91c1,.17,9.41,1.87,13.25,10.14a18.55,18.55,0,0,1-.43,16A2.49,2.49,0,0,1,101.57,76.35Zm-11-25.47a.5.5,0,0,0-.09,1c.79.14,7.84,1.55,11,8.44,3,6.52,0,12.63-.36,13.31a.49.49,0,0,0,.21.67.47.47,0,0,0,.67-.21,16.48,16.48,0,0,0,.39-14.19C99,52.54,91.47,51,90.62,50.88Z" fill="#10b981"/>
    </g>
  </g>
</svg>
