<svg xmlns="http://www.w3.org/2000/svg" width="18" height="18" viewBox="0 0 18 18">
  <g id="smile4" transform="translate(0.098)">
    <circle id="Ellipse_271" data-name="Ellipse 271" cx="9" cy="9" r="9" transform="translate(-0.098)" fill="#10b981"/>
    <g id="Group_390" data-name="Group 390" transform="translate(4.586 5.565)">
      <path id="Path_309" data-name="Path 309" d="M66.395,88.974a.4.4,0,0,1-.28-.114,5.286,5.286,0,0,0-7.437,0,.4.4,0,1,1-.556-.574,6.088,6.088,0,0,1,8.553,0,.4.4,0,0,1,0,.564A.4.4,0,0,1,66.395,88.974Z" transform="translate(-58 -82.16)" fill="#fff"/>
      <g id="Group_389" data-name="Group 389" transform="translate(0.457)">
        <g id="Group_387" data-name="Group 387">
          <circle id="Ellipse_272" data-name="Ellipse 272" cx="0.819" cy="0.819" r="0.819" transform="translate(0.403 0.403)" fill="#fff"/>
          <path id="Path_310" data-name="Path 310" d="M62.082,61.63A1.22,1.22,0,1,1,63.3,60.412a1.22,1.22,0,0,1-1.218,1.218Zm0-1.639a.419.419,0,1,0,.3.123A.421.421,0,0,0,62.082,59.991Z" transform="translate(-60.86 -59.19)" fill="#fff"/>
        </g>
        <g id="Group_388" data-name="Group 388" transform="translate(5.437)">
          <circle id="Ellipse_273" data-name="Ellipse 273" cx="0.819" cy="0.819" r="0.819" transform="translate(0.403 0.403)" fill="#fff"/>
          <path id="Path_311" data-name="Path 311" d="M96.082,61.63A1.22,1.22,0,1,1,97.3,60.412a1.22,1.22,0,0,1-1.218,1.218Zm0-1.639a.419.419,0,1,0,.3.123A.421.421,0,0,0,96.082,59.991Z" transform="translate(-94.86 -59.19)" fill="#fff"/>
        </g>
      </g>
    </g>
  </g>
</svg>
