<svg id="Layer_1" data-name="Layer 1" width="21.935" height="18" xmlns="http://www.w3.org/2000/svg" viewBox="0 0 171 161">
  <g>
    <rect x="34" y="108.5" width="35" height="5" rx="2" fill="#10b981" style="isolation: isolate"/>
    <rect x="45" y="118.5" width="30" height="5" rx="2" fill="#10b981" style="isolation: isolate"/>
    <rect x="24" y="118.5" width="17" height="5" rx="2" fill="#10b981" style="isolation: isolate"/>
    <rect x="38" y="128.5" width="61" height="5" rx="2" fill="#10b981" style="isolation: isolate"/>
    <path d="M94,27.5a53,53,0,0,0-47.76,76H61a2,2,0,0,1,2,2v1a2,2,0,0,1-2,2H49a55,55,0,0,0,3.54,5H57a2,2,0,0,1,2,2v1a2,2,0,0,1-1.93,2,52.85,52.85,0,0,0,6,5H81a2,2,0,0,1,2,2v1a2,2,0,0,1-2,2H71.52A53,53,0,1,0,94,27.5Z" fill="#10b981" style="isolation: isolate"/>
    <rect x="24" y="99.5" width="17" height="4" rx="2" fill="#10b981" style="isolation: isolate"/>
    <g>
      <path d="M93.75,112.5A33.75,33.75,0,1,1,127.5,78.75,33.79,33.79,0,0,1,93.75,112.5Zm0-64.5A30.75,30.75,0,1,0,124.5,78.75,30.78,30.78,0,0,0,93.75,48Z" fill="#fff"/>
      <path d="M111.86,96.6a1.47,1.47,0,0,1-1-.4L93.07,80l-.79-.39,0-1V54.14a1.5,1.5,0,1,1,3,0v23.8l17.62,16a1.5,1.5,0,0,1-1,2.61Z" fill="#fff"/>
      <g>
        <circle cx="93.75" cy="79.63" r="2.21" fill="#fff"/>
        <path d="M93.75,83.34a3.71,3.71,0,1,1,3.71-3.71A3.72,3.72,0,0,1,93.75,83.34Zm0-4.42a.71.71,0,1,0,.71.71A.71.71,0,0,0,93.75,78.92Z" fill="#fff"/>
      </g>
    </g>
  </g>
</svg>
