<svg xmlns="http://www.w3.org/2000/svg" width="20.887" height="18.001" viewBox="0 0 20.887 18.001">
  <g id="time" transform="translate(-24 -27.5)">
    <rect id="Rectangle_365" data-name="Rectangle 365" width="5.944" height="0.849" rx="0.425" transform="translate(25.698 41.256)" fill="#10b981"/>
    <rect id="Rectangle_366" data-name="Rectangle 366" width="5.095" height="0.849" rx="0.425" transform="translate(27.566 42.954)" fill="#10b981"/>
    <rect id="Rectangle_367" data-name="Rectangle 367" width="2.887" height="0.849" rx="0.425" transform="translate(24 42.954)" fill="#10b981"/>
    <rect id="Rectangle_368" data-name="Rectangle 368" width="10.359" height="0.849" rx="0.425" transform="translate(26.378 44.652)" fill="#10b981"/>
    <path id="Path_315" data-name="Path 315" d="M49.991,27.5a9,9,0,0,0-8.111,12.906h2.507a.34.34,0,0,1,.34.34v.17a.34.34,0,0,1-.34.34H42.349a9.341,9.341,0,0,0,.6.849h.757a.34.34,0,0,1,.34.34v.17a.34.34,0,0,1-.328.34,8.975,8.975,0,0,0,1.019.849h3.045a.34.34,0,0,1,.34.34v.17a.34.34,0,0,1-.34.34h-1.61A9,9,0,1,0,49.991,27.5Z" transform="translate(-14.104)" fill="#10b981"/>
    <rect id="Rectangle_369" data-name="Rectangle 369" width="2.887" height="0.679" rx="0.34" transform="translate(24 39.727)" fill="#10b981"/>
    <g id="Group_393" data-name="Group 393" transform="translate(30.114 30.472)">
      <path id="Path_316" data-name="Path 316" d="M65.731,56.463a5.731,5.731,0,1,1,5.731-5.731A5.731,5.731,0,0,1,65.731,56.463Zm0-10.954a5.222,5.222,0,1,0,5.222,5.222,5.222,5.222,0,0,0-5.222-5.222Z" transform="translate(-60 -45)" fill="#fff"/>
      <path id="Path_317" data-name="Path 317" d="M95.605,60.105a.25.25,0,0,1-.17-.068l-3.021-2.751-.134-.066V52.895a.255.255,0,0,1,.509,0v4.042l2.992,2.717a.255.255,0,0,1-.17.443Z" transform="translate(-86.798 -51.343)" fill="#fff"/>
      <g id="Group_392" data-name="Group 392" transform="translate(5.101 5.251)">
        <circle id="Ellipse_275" data-name="Ellipse 275" cx="0.375" cy="0.375" r="0.375" transform="translate(0.255 0.255)" fill="#fff"/>
        <path id="Path_318" data-name="Path 318" d="M90.67,77.18a.63.63,0,1,1,.63-.63A.63.63,0,0,1,90.67,77.18Zm0-.751a.121.121,0,1,0,.121.121A.121.121,0,0,0,90.67,76.429Z" transform="translate(-90.04 -75.92)" fill="#fff"/>
      </g>
    </g>
  </g>
</svg>
