<svg id="Layer_1" data-name="Layer 1" xmlns="http://www.w3.org/2000/svg" viewBox="0 0 123 106.01">
  <g>
    <rect x="10" y="81" width="35" height="5" rx="2" fill="#10b981"/>
    <rect x="21" y="91" width="30" height="5" rx="2" fill="#10b981"/>
    <rect y="91" width="17" height="5" rx="2" fill="#10b981"/>
    <rect x="14" y="101" width="61" height="5" rx="2" fill="#10b981"/>
    <path d="M70,0A53,53,0,0,0,22.24,76H37a2,2,0,0,1,2,2v1a2,2,0,0,1-2,2H25a56.39,56.39,0,0,0,3.54,5H33a2,2,0,0,1,2,2v1a2,2,0,0,1-1.93,2,53.18,53.18,0,0,0,6,5H57a2,2,0,0,1,2,2v1a2,2,0,0,1-2,2H47.52A53,53,0,1,0,70,0Z" fill="#10b981"/>
    <path d="M2,72H15a2,2,0,0,1,2,2h0a2,2,0,0,1-2,2H2a2,2,0,0,1-2-2H0A2,2,0,0,1,2,72Z" fill="#10b981"/>
    <g>
      <path d="M69.75,85A33.75,33.75,0,1,1,103.5,51.25,33.75,33.75,0,0,1,69.75,85Zm0-64.5A30.75,30.75,0,1,0,100.5,51.25,30.75,30.75,0,0,0,69.75,20.5Z" fill="#fff"/>
      <path d="M87.86,69.1a1.44,1.44,0,0,1-1-.4L69.07,52.5l-.79-.39V26.64a1.5,1.5,0,0,1,3,0h0v23.8l17.62,16a1.5,1.5,0,0,1,.1,2.12,1.48,1.48,0,0,1-1.1.49Z" fill="#fff"/>
      <g>
        <circle cx="69.75" cy="52.13" r="2.21" fill="#fff"/>
        <path d="M69.75,55.84a3.71,3.71,0,1,1,3.71-3.71h0A3.72,3.72,0,0,1,69.75,55.84Zm0-4.42a.71.71,0,1,0,.71.71h0A.71.71,0,0,0,69.75,51.42Z" fill="#fff"/>
      </g>
    </g>
  </g>
</svg>
