<svg xmlns="http://www.w3.org/2000/svg" viewBox="0 0 108.02832 28.69385">
  <defs>
    <style>
      .a {
        fill: #231f20;
      }
    </style>
  </defs>
  <g>
    <path class="a" d="M3.54785,20.96338a1.06432,1.06432,0,0,1-.33594.79687,1.08871,1.08871,0,0,1-.79687.33594h-.0376a1.08767,1.08767,0,0,1-.79639-.33594,1.063,1.063,0,0,1-.33642-.79687V14.1167a5.43719,5.43719,0,0,1,1.64355-3.97119,5.41039,5.41039,0,0,1,3.9712-1.64307,5.35366,5.35366,0,0,1,4.46874,2.21582,5.32044,5.32044,0,0,1,4.45655-2.21582,5.6098,5.6098,0,0,1,5.61426,5.61426v6.84668a1.083,1.083,0,0,1-.32373.79687,1.10248,1.10248,0,0,1-.80909.33594h-.0249a1.14728,1.14728,0,0,1-1.13281-1.13281V14.1167a3.315,3.315,0,0,0-3.32373-3.31152,3.315,3.315,0,0,0-3.311,3.31152v6.84668a1.14813,1.14813,0,0,1-1.13281,1.13281h-.0249a1.10275,1.10275,0,0,1-.80957-.33594,1.06432,1.06432,0,0,1-.33594-.79687V14.1167a3.19007,3.19007,0,0,0-.97119-2.34033,3.18821,3.18821,0,0,0-2.33984-.97119,3.18854,3.18854,0,0,0-2.34034.97119,3.19007,3.19007,0,0,0-.97119,2.34033Z"/>
    <path class="a" d="M36.48682,12.47363A1.12334,1.12334,0,0,1,35.92676,13.98q-1.74316.78369-4.58106,2.06641-3.52294,1.593-4.56884,2.0664a4.274,4.274,0,0,0,3.53564,1.71778,4.49715,4.49715,0,0,0,4.24463-3.02491,1.06725,1.06725,0,0,1,1.0957-.772,1.09383,1.09383,0,0,1,.9336.48535,1.0697,1.0697,0,0,1,.13671,1.03321A6.54233,6.54233,0,0,1,34.2832,20.814a6.63251,6.63251,0,0,1-3.9707,1.28223,6.80009,6.80009,0,0,1-6.79688-6.79687A6.7893,6.7893,0,0,1,34.022,9.61035,6.64862,6.64862,0,0,1,36.48682,12.47363ZM30.3125,10.83008a4.48457,4.48457,0,0,0-4.49414,4.50635,4.33734,4.33734,0,0,0,.0498.66015L33.74805,12.436A4.2823,4.2823,0,0,0,30.3125,10.83008Z"/>
    <path class="a" d="M51.63623,12.47363A1.12334,1.12334,0,0,1,51.07617,13.98q-1.74316.78369-4.581,2.06641-3.523,1.593-4.56885,2.0664a4.274,4.274,0,0,0,3.53564,1.71778,4.49712,4.49712,0,0,0,4.24463-3.02491,1.06725,1.06725,0,0,1,1.09571-.772,1.09382,1.09382,0,0,1,.93359.48535,1.06973,1.06973,0,0,1,.13672,1.03321A6.54239,6.54239,0,0,1,49.43262,20.814a6.63256,6.63256,0,0,1-3.97071,1.28223A6.80009,6.80009,0,0,1,38.665,15.29932a6.7893,6.7893,0,0,1,10.50635-5.689A6.64866,6.64866,0,0,1,51.63623,12.47363Zm-6.17432-1.64355a4.48457,4.48457,0,0,0-4.49414,4.50635,4.33734,4.33734,0,0,0,.04981.66015L48.89746,12.436A4.28229,4.28229,0,0,0,45.46191,10.83008Z"/>
    <path class="a" d="M60.01416,3.39844A1.10639,1.10639,0,0,1,61.147,4.53125v.0249A1.10639,1.10639,0,0,1,60.01416,5.689h-.70947a2.71107,2.71107,0,0,0-1.9917.82178,2.77862,2.77862,0,0,0-.82178,1.9917v.01221h3.52295a1.10293,1.10293,0,0,1,.80908.33642,1.08271,1.08271,0,0,1,.32373.79639v.0249a1.12466,1.12466,0,0,1-.32373.80957,1.10434,1.10434,0,0,1-.80908.33594H56.49121V20.96338a1.06432,1.06432,0,0,1-.33594.79687,1.08871,1.08871,0,0,1-.79687.33594h-.0376a1.08767,1.08767,0,0,1-.79639-.33594,1.063,1.063,0,0,1-.33642-.79687V8.50244a5.02128,5.02128,0,0,1,1.49414-3.60986,4.9315,4.9315,0,0,1,3.62256-1.49414Z"/>
    <path class="a" d="M69.31348,8.50244a6.80009,6.80009,0,0,1,6.79687,6.79688,6.79688,6.79688,0,0,1-13.59375,0,6.80009,6.80009,0,0,1,6.79688-6.79688Zm0,2.32764a4.48455,4.48455,0,0,0-4.49414,4.50635,4.48367,4.48367,0,0,0,4.49414,4.49414,4.50455,4.50455,0,0,0,4.49365-4.49414,4.50535,4.50535,0,0,0-4.49365-4.50635Z"/>
    <path class="a" d="M84.6499,8.50244a6.80009,6.80009,0,0,1,6.79688,6.79688,6.79688,6.79688,0,0,1-13.59375,0A6.80009,6.80009,0,0,1,84.6499,8.50244Zm0,2.32764a4.48457,4.48457,0,0,0-4.49414,4.50635,4.48369,4.48369,0,0,0,4.49414,4.49414,4.50453,4.50453,0,0,0,4.49365-4.49414,4.50534,4.50534,0,0,0-4.49365-4.50635Z"/>
    <path class="a" d="M105.65039,3.39844a1.1261,1.1261,0,0,1,1.13281,1.13281V15.33643a6.79669,6.79669,0,0,1-13.59326-.03711A6.79017,6.79017,0,0,1,104.48047,10.208V4.53125a1.12612,1.12612,0,0,1,1.13281-1.13281ZM96.7998,12.1499a4.52337,4.52337,0,0,0,0,6.36133,4.5,4.5,0,0,0,7.68067-3.1748A4.49781,4.49781,0,0,0,96.7998,12.1499Z"/>
  </g>
</svg>
