<svg xmlns="http://www.w3.org/2000/svg" viewBox="0 0 482 358.85">
  <g id="Warstwa_1" data-name="Warstwa 1" fill="black">
    <path id="Path_392" data-name="Path 392" d="M120.23,343.28c-.23,2.72-.16,2.64-1.14,3.56S112.93,348,112,347s-1-1-.85-3.72V312.7c-.15-6.7,1.72-13.08,6.5-17.73a25.08,25.08,0,0,1,37.69,2.56,23.76,23.76,0,0,1,19.9-9.9,25.28,25.28,0,0,1,25.23,25v30.63c-.12,1.33.53,3.71-1.47,5.71-.95,1-3.74.78-3.74.78h-.21a5.17,5.17,0,0,1-5.18-5V314.14a15.15,15.15,0,0,0-30.28,0v30.59c0,2.77-1.75,5.23-4.59,5.27a5,5,0,0,1-3-1c-1-.92-1-1-1-5l-.49-31.3a16.05,16.05,0,0,0-4.67-10.44,14.75,14.75,0,0,0-20.9,0,16.29,16.29,0,0,0-4.71,10.44Z" transform="translate(-111.08 -199.5)" fill="inherit"/>
    <path id="Path_393" data-name="Path 393" d="M267.7,305.37a5,5,0,0,1-2.4,6.68l-.1.05q-7.79,3.5-20.46,9.23l-20.41,9.24a19.1,19.1,0,0,0,15.8,7.67,20.09,20.09,0,0,0,18.95-13.52,4.77,4.77,0,0,1,4.89-3.45,4.89,4.89,0,0,1,4.17,2.17,4.79,4.79,0,0,1,.61,4.62,29.2,29.2,0,0,1-10.9,14.56,29.65,29.65,0,0,1-17.73,5.72,30.36,30.36,0,1,1,16.57-55.76,29.72,29.72,0,0,1,11,12.79ZM240.23,298a20,20,0,0,0-20.08,20v.14a19.34,19.34,0,0,0,.23,3l35.19-15.9A19.11,19.11,0,0,0,240.23,298Z" transform="translate(-111.08 -199.5)" fill="inherit"/>
    <path id="Path_394" data-name="Path 394" d="M335.36,305.37a5,5,0,0,1-2.4,6.68l-.1.05q-7.78,3.5-20.46,9.23L292,330.57a19.1,19.1,0,0,0,15.79,7.67,20.09,20.09,0,0,0,19-13.52,4.77,4.77,0,0,1,4.89-3.45,4.9,4.9,0,0,1,4.17,2.17,4.79,4.79,0,0,1,.61,4.62,29.2,29.2,0,0,1-10.9,14.56,29.65,29.65,0,0,1-17.73,5.72,30.36,30.36,0,1,1,16.57-55.76A29.72,29.72,0,0,1,335.36,305.37ZM308,298.25a19.65,19.65,0,0,0-19.69,19.6V318a20.09,20.09,0,0,0,.22,2.89L323,305.29a18.77,18.77,0,0,0-15-7Z" transform="translate(-111.08 -199.5)" fill="inherit"/>
    <path id="Path_395" data-name="Path 395" d="M372.66,256.64a6,6,0,0,1,6.19,5.75v1.12a5.84,5.84,0,0,1-5.88,5.81h-4.15A15.25,15.25,0,0,0,358,273.53a13.83,13.83,0,0,0-4.47,10.22v.06h19.18a6.22,6.22,0,0,1,4.41,1.72,5.39,5.39,0,0,1,1.76,4.09v.8a5.86,5.86,0,0,1-1.76,4.29,6.11,6.11,0,0,1-4.41,1.78H353.5v53.76a5.62,5.62,0,0,1-1.83,4.23,6.06,6.06,0,0,1-4.34,1.78H347a6.08,6.08,0,0,1-4.36-1.79,5.58,5.58,0,0,1-1.83-4.25V283.83A26.4,26.4,0,0,1,349,264.6a27.34,27.34,0,0,1,19.79-8Z" transform="translate(-111.08 -199.5)" fill="inherit"/>
    <path id="Path_396" data-name="Path 396" d="M422.75,283.71A36.32,36.32,0,1,1,386.43,320h0A36.34,36.34,0,0,1,422.75,283.71Zm-.43,12.77a25.45,25.45,0,1,0,.17,0h-.17Z" transform="translate(-111.08 -199.5)" fill="inherit"/>
    <path id="Path_397" data-name="Path 397" d="M504.68,283.71A36.32,36.32,0,1,1,468.37,320h0A36.33,36.33,0,0,1,504.68,283.71Zm1,12.77c-14,0-25.2,12.43-23.44,27.09a23.56,23.56,0,0,0,47-3v-.5a23.64,23.64,0,0,0-23.54-23.57h0Z" transform="translate(-111.08 -199.5)" fill="inherit"/>
    <path id="Path_398" data-name="Path 398" d="M585.94,268a5.08,5.08,0,0,1,5.06,5.06h0v48.25c-.07,17.59-15.51,31.63-33.92,30.19-15.32-1.2-27.92-13.43-28.69-28.77-.88-17.54,13.54-32,31.4-31.92a31.79,31.79,0,0,1,20.61,7.6V273.06a5.11,5.11,0,0,1,5.16-5.06h.38Zm-39.88,38.92A20.09,20.09,0,1,0,568,302.56,20.09,20.09,0,0,0,546.06,306.92Z" transform="translate(-111.08 -199.5)" fill="inherit"/>
    <path d="M588.17,538.57,497.28,405.14a110.32,110.32,0,1,0-19.9,11l92.07,135.15a8.08,8.08,0,0,0,11.23,2.13l5.37-3.66A8.07,8.07,0,0,0,588.17,538.57ZM344,314a90,90,0,1,1,90,90A90.1,90.1,0,0,1,344,314Z" transform="translate(-111.08 -199.5)" fill="inherit" stroke="#000" stroke-miterlimit="10" stroke-opacity="0" stroke-width="7"/>
  </g>
</svg>
