<svg xmlns="http://www.w3.org/2000/svg" viewBox="0 0 479.91125 301.20787">
  <defs>
    <style>
      .a {
        fill: #fff;
      }

      .b {
        fill: #047857;
      }
    </style>
  </defs>
  <g>
    <path class="a" d="M9.14125,125.01275c-.23,2.72-.16,2.64-1.14,3.56s-6.16,1.16-7.09.16-1-1-.85-3.72v-30.58c-.15-6.7,1.72-13.08,6.5-17.73a25.08012,25.08012,0,0,1,37.69,2.56,23.76,23.76,0,0,1,19.9-9.9,25.28,25.28,0,0,1,25.23,25v30.63c-.12,1.33.53,3.71-1.47,5.71-.95,1-3.74.78-3.74.78h-.21a5.17,5.17,0,0,1-5.18-5v-30.61a15.15,15.15,0,0,0-30.28,0v30.59c0,2.77-1.75,5.23-4.59,5.27a5.00009,5.00009,0,0,1-3-1c-1-.92-1-1-1-5l-.49-31.3a16.05,16.05,0,0,0-4.67-10.44,14.75,14.75,0,0,0-20.85961-.04041l-.04039.04041a16.29,16.29,0,0,0-4.71,10.44Z"/>
    <path class="a" d="M156.61126,87.10275a5,5,0,0,1-2.36542,6.6637l-.03457.01629-.1.05q-7.79,3.5-20.46,9.23l-20.41,9.24a19.1,19.1,0,0,0,15.8,7.67,20.09,20.09,0,0,0,18.95-13.52,4.77,4.77,0,0,1,4.89-3.45,4.89,4.89,0,0,1,4.17,2.17,4.79,4.79,0,0,1,.61,4.62,29.20011,29.20011,0,0,1-10.9,14.56,29.64982,29.64982,0,0,1-17.73,5.72,30.36,30.36,0,1,1,16.57-55.76,29.72,29.72,0,0,1,11,12.79Zm-27.47-7.37A20,20,0,0,0,109.0614,99.65259l-.00016.08017v.14a19.3413,19.3413,0,0,0,.23,3l35.19-15.9A19.11,19.11,0,0,0,129.14125,79.73276Z"/>
    <path class="a" d="M224.27123,87.10275a5,5,0,0,1-2.36541,6.6637l-.03458.01629-.1.05q-7.78,3.5-20.46,9.23l-20.4,9.24a19.1,19.1,0,0,0,15.79,7.67,20.09,20.09,0,0,0,19-13.52,4.77,4.77,0,0,1,4.89-3.45,4.9,4.9,0,0,1,4.17,2.17,4.79,4.79,0,0,1,.61,4.62,29.20006,29.20006,0,0,1-10.9,14.56,29.64984,29.64984,0,0,1-17.73,5.72,30.36,30.36,0,1,1,16.57-55.76A29.71987,29.71987,0,0,1,224.27123,87.10275Zm-27.36-7.12a19.65,19.65,0,0,0-19.69,19.6v.15a20.09032,20.09032,0,0,0,.22,2.89l34.47-15.6a18.77005,18.77005,0,0,0-15-7Z"/>
    <path class="a" d="M261.57125,38.37277a6,6,0,0,1,6.19,5.75v1.12a5.84,5.84,0,0,1-5.86979,5.81l-.01022-.00006h-4.15a15.25005,15.25005,0,0,0-10.82,4.21,13.83,13.83,0,0,0-4.47,10.22v.06h19.18a6.22,6.22,0,0,1,4.41,1.72,5.39,5.39,0,0,1,1.76,4.09v.8a5.86,5.86,0,0,1-1.76,4.29,6.10992,6.10992,0,0,1-4.41,1.78h-19.21v53.76a5.62,5.62,0,0,1-1.83,4.23,6.06,6.06,0,0,1-4.34,1.78h-.33a6.08,6.08,0,0,1-4.36-1.79,5.58,5.58,0,0,1-1.83-4.25v-66.39a26.4,26.4,0,0,1,8.19-19.23,27.34007,27.34007,0,0,1,19.79-8Z"/>
    <path class="a" d="M298.1012,65.44385a38.05085,38.05085,0,1,1-38.05086,38.05084v-.0314h0A38.07182,38.07182,0,0,1,298.1012,65.44385Zm-.08907,11.60594a26.66282,26.66282,0,1,0,.17812,0Z"/>
    <path class="a" d="M474.85125,49.73276a5.08,5.08,0,0,1,5.06,5.06h0v48.25c-.07,17.59-15.51,31.63-33.92,30.19-15.32-1.2-27.92-13.43-28.69-28.77-.88-17.54,13.54-32,31.4-31.92a31.79,31.79,0,0,1,20.61,7.6v-25.35a5.11,5.11,0,0,1,5.15949-5.06h.38049Zm-39.88,38.92a20.09007,20.09007,0,1,0,21.94-4.36,20.09,20.09,0,0,0-21.94,4.36Z"/>
    <path class="a" d="M377.566,64.57192a38.05085,38.05085,0,1,1-38.05087,38.05083v-.03139h0A38.07181,38.07181,0,0,1,377.566,64.57192Zm-.08908,11.60593a26.66283,26.66283,0,1,0,.17812,0Z"/>
    <path class="b" d="M329.90984,0a97.81435,97.81435,0,1,0,97.81438,97.81438A97.81436,97.81436,0,0,0,329.90984,0Zm-.1085,168.51105a70.95795,70.95795,0,1,1,70.958-70.95792A70.958,70.958,0,0,1,329.80134,168.51105Z"/>
    <path class="a" d="M460.17636,287.46244l-76.8618-112.83609a93.29294,93.29294,0,1,0-16.82859,9.30224l77.85971,114.29065a6.83294,6.83294,0,0,0,9.49341,1.80352l.00331-.00227,4.54117-3.09508A6.82443,6.82443,0,0,0,460.17636,287.46244ZM253.69216,97.5531a76.10919,76.10919,0,1,1,76.10918,76.10919A76.10918,76.10918,0,0,1,253.69216,97.5531Z"/>
  </g>
</svg>
