<svg xmlns="http://www.w3.org/2000/svg" width="130.877" height="130.877" viewBox="0 0 130.877 130.877">
  <g id="pizza" transform="translate(-20.15 -21.15)">
    <circle id="Ellipse_261" data-name="Ellipse 261" cx="65.439" cy="65.439" r="65.439" transform="translate(20.15 21.15)" fill="#10b981"/>
    <g id="Group_376" data-name="Group 376" transform="translate(46.264 44.259)">
      <path id="Path_286" data-name="Path 286" d="M99.709,139.947a3.544,3.544,0,0,1-3.088-1.808L60.6,73.581a3.518,3.518,0,0,1,1.038-4.569,68.689,68.689,0,0,1,75.491-2.245,3.558,3.558,0,0,1,1.305,4.687L102.855,138.08a3.538,3.538,0,0,1-3.088,1.867Zm1.306-80.139A65.432,65.432,0,0,0,63.507,71.649a.268.268,0,0,0-.059.339l36.025,64.557a.339.339,0,0,0,.235.137.248.248,0,0,0,.242-.144L135.526,69.9a.281.281,0,0,0-.117-.372,65.53,65.53,0,0,0-34.387-9.72Z" transform="translate(-60.156 -56.552)" fill="#fff"/>
      <path id="Path_287" data-name="Path 287" d="M109.794,111.085a8.642,8.642,0,0,1-8.31-6.3,8.342,8.342,0,0,1,5.973-10.34,8.577,8.577,0,0,1,9.641,12.461h0A8.4,8.4,0,0,1,109.794,111.085Zm-.2-13.649a5.385,5.385,0,0,0-1.306.17,5.078,5.078,0,0,0-3.642,6.306,5.313,5.313,0,0,0,2.487,3.192,5.222,5.222,0,0,0,7.18-1.828h0a5.222,5.222,0,0,0-2-7.108A5.307,5.307,0,0,0,109.6,97.435Z" transform="translate(-74.399 -69.617)" fill="#fff"/>
      <path id="Path_288" data-name="Path 288" d="M103.667,153.1a7.079,7.079,0,0,1-.914-.059l.4-3.264a4.086,4.086,0,1,0-3.035-6.1l-2.826-1.625a7.35,7.35,0,1,1,6.377,11.032Z" transform="translate(-73.051 -84.966)" fill="#fff"/>
      <path id="Path_289" data-name="Path 289" d="M137.831,140.483a7.832,7.832,0,1,1,7.376-13.656l-1.958,2.611a4.569,4.569,0,1,0-4.3,7.977Z" transform="translate(-85.367 -80.432)" fill="#fff"/>
      <path id="Path_290" data-name="Path 290" d="M69.858,87.749,67.9,85.138a59.564,59.564,0,0,1,68.03-1.958l-1.789,2.729a56.287,56.287,0,0,0-64.3,1.828Z" transform="translate(-62.845 -62.424)" fill="#fff"/>
    </g>
  </g>
</svg>
