<svg xmlns="http://www.w3.org/2000/svg" width="387.356" height="387" viewBox="0 0 387.356 387">
  <g id="Group_456" data-name="Group 456" transform="translate(0 -0.356)">
    <rect id="Rectangle_377" data-name="Rectangle 377" width="387" height="387" transform="translate(0.356 0.356)" fill="none"/>
    <g id="delivery" transform="translate(0 48.778)">
      <g id="Group_371" data-name="Group 371" transform="translate(0 0)">
        <rect id="Rectangle_361" data-name="Rectangle 361" width="165.114" height="13.529" rx="3.77" transform="translate(43.312 273.043)" fill="#10b981"/>
        <rect id="Rectangle_362" data-name="Rectangle 362" width="94.745" height="13.529" rx="3.77" transform="translate(27.072 218.9)" fill="#10b981"/>
        <rect id="Rectangle_363" data-name="Rectangle 363" width="81.201" height="13.529" rx="3.77" transform="translate(56.855 245.971)" fill="#10b981"/>
        <rect id="Rectangle_364" data-name="Rectangle 364" width="46.024" height="13.529" rx="3.77" transform="translate(0 245.971)" fill="#10b981"/>
        <path id="Path_269" data-name="Path 269" d="M179.144,20.509A143.465,143.465,0,0,0,49.681,225.851H85.806a5.409,5.409,0,0,1,5.423,5.409v2.712a5.409,5.409,0,0,1-5.423,5.409H57.113a145.772,145.772,0,0,0,9.5,13.529h8.407a5.409,5.409,0,0,1,5.409,5.423v2.7a5.409,5.409,0,0,1-2.511,4.562,142.809,142.809,0,0,0,16.857,14.347h50.615a5.423,5.423,0,0,1,5.423,5.423v2.711a5.423,5.423,0,0,1-5.423,5.423H117.425A143.465,143.465,0,1,0,179.115,20.48Z" transform="translate(14.348 -20.48)" fill="#10b981"/>
        <path id="Path_270" data-name="Path 270" d="M6.223,156.08H41.4a5.409,5.409,0,0,1,5.423,5.409h0a5.423,5.423,0,0,1-5.423,5.423H6.223A5.423,5.423,0,0,1,.8,161.489h0a5.409,5.409,0,0,1,5.423-5.409Z" transform="translate(-0.8 38.459)" fill="#10b981"/>
        <path id="Path_376" data-name="Path 376" d="M6.223,156.08H41.4a5.409,5.409,0,0,1,5.423,5.409h0a5.423,5.423,0,0,1-5.423,5.423H6.223A5.423,5.423,0,0,1,.8,161.489h0a5.409,5.409,0,0,1,5.423-5.409Z" transform="translate(340.056 38.459)" fill="none"/>
      </g>
      <g id="Group_372" data-name="Group 372" transform="translate(72.134 66.353)">
        <path id="Path_271" data-name="Path 271" d="M286.249,154.133H56.1a5.021,5.021,0,0,1,0-10.043H286.249a5.021,5.021,0,1,1,0,10.043Z" transform="translate(-51.08 -33.105)" fill="#fff"/>
        <path id="Path_272" data-name="Path 272" d="M137.231,92.191a5.021,5.021,0,0,1-5.021-5.021V73.641a5.021,5.021,0,0,1,10.043,0V87.17A5.021,5.021,0,0,1,137.231,92.191Z" transform="translate(-15.817 -65.909)" fill="#fff"/>
        <path id="Path_273" data-name="Path 273" d="M154.863,76.773H127.791a5.021,5.021,0,0,1,0-10.043h27.072a5.021,5.021,0,1,1,0,10.043Z" transform="translate(-19.92 -66.73)" fill="#fff"/>
        <path id="Path_274" data-name="Path 274" d="M259.209,182.066h-.086a5.007,5.007,0,0,1-4.935-5.107v-3a87.93,87.93,0,0,0-87.8-86.323h-1.521a87.916,87.916,0,0,0-86.309,89.307,5.022,5.022,0,1,1-10.043.172,97.865,97.865,0,1,1,195.7-3.343c0,1.119,0,2.238,0,3.343a5.007,5.007,0,0,1-5.007,4.95Z" transform="translate(-43.508 -62.014)" fill="#fff"/>
      </g>
    </g>
    <g id="Group_461" data-name="Group 461" transform="translate(256.675 256.356)">
      <g id="Ellipse_144" data-name="Ellipse 144" transform="translate(-0.318)" fill="#fff" stroke="#045138" stroke-width="5">
        <circle cx="65.5" cy="65.5" r="65.5" stroke="none"/>
        <circle cx="65.5" cy="65.5" r="63" fill="none"/>
      </g>
      <text id="_3" data-name="3" transform="translate(43.682 91)" fill="#045138" font-size="68" font-family="Inter-SemiBold, Inter" font-weight="600"><tspan x="0" y="0">3</tspan></text>
    </g>
  </g>
</svg>
