<svg xmlns="http://www.w3.org/2000/svg" width="387" height="387" viewBox="0 0 387 387">
  <g id="Group_458" data-name="Group 458" transform="translate(-0.012 -0.356)">
    <rect id="Rectangle_379" data-name="Rectangle 379" width="387" height="387" transform="translate(0.012 0.356)" fill="none"/>
    <g id="pizza" transform="translate(50.212 50.213)">
      <circle id="Ellipse_261" data-name="Ellipse 261" cx="143.824" cy="143.824" r="143.824" transform="translate(0 0)" fill="#10b981"/>
      <g id="Group_376" data-name="Group 376" transform="translate(57.395 50.79)">
        <path id="Path_286" data-name="Path 286" d="M147.088,239.84a7.79,7.79,0,0,1-6.786-3.974L61.123,93.979A7.733,7.733,0,0,1,63.4,83.936,150.969,150.969,0,0,1,229.322,79a7.819,7.819,0,0,1,2.869,10.3L154,235.737a7.776,7.776,0,0,1-6.786,4.1Zm2.869-176.132A143.81,143.81,0,0,0,67.522,89.732a.588.588,0,0,0-.129.746l79.179,141.887a.746.746,0,0,0,.516.3.545.545,0,0,0,.531-.316L225.807,85.888a.617.617,0,0,0-.258-.818,144.025,144.025,0,0,0-75.578-21.362Z" transform="translate(-60.156 -56.552)" fill="#fff"/>
        <path id="Path_287" data-name="Path 287" d="M120.12,131.34A19,19,0,0,1,101.857,117.5,18.335,18.335,0,0,1,114.984,94.77a18.851,18.851,0,0,1,21.19,27.388h0A18.464,18.464,0,0,1,120.12,131.34Zm-.43-30a11.836,11.836,0,0,0-2.869.373,11.162,11.162,0,0,0-8.005,13.859,11.678,11.678,0,0,0,5.466,7.015,11.477,11.477,0,0,0,15.781-4.017h0a11.477,11.477,0,0,0-4.39-15.623A11.664,11.664,0,0,0,119.69,101.341Z" transform="translate(-42.327 -40.2)" fill="#fff"/>
        <path id="Path_288" data-name="Path 288" d="M111.307,170.732a15.558,15.558,0,0,1-2.009-.129l.875-7.173a8.981,8.981,0,1,0-6.671-13.414l-6.212-3.572a16.154,16.154,0,1,1,14.017,24.246Z" transform="translate(-44.015 -20.986)" fill="#fff"/>
        <path id="Path_289" data-name="Path 289" d="M143.908,158.647a17.214,17.214,0,1,1,16.212-30.013l-4.3,5.739a10.043,10.043,0,1,0-9.454,17.531Z" transform="translate(-28.599 -26.662)" fill="#fff"/>
        <path id="Path_290" data-name="Path 290" d="M72.2,104.864l-4.3-5.739a130.912,130.912,0,0,1,149.52-4.3l-3.931,6a123.71,123.71,0,0,0-141.313,4.017Z" transform="translate(-56.79 -49.203)" fill="#fff"/>
      </g>
    </g>
    <g id="Group_460" data-name="Group 460" transform="translate(256.324 256.356)">
      <g id="Ellipse_144" data-name="Ellipse 144" transform="translate(-0.313)" fill="#fff" stroke="#045138" stroke-width="5">
        <circle cx="65.5" cy="65.5" r="65.5" stroke="none"/>
        <circle cx="65.5" cy="65.5" r="63" fill="none"/>
      </g>
      <text id="_2" data-name="2" transform="translate(44.687 91)" fill="#045138" font-size="68" font-family="Inter-SemiBold, Inter" font-weight="600"><tspan x="0" y="0">2</tspan></text>
    </g>
  </g>
</svg>
