<svg xmlns="http://www.w3.org/2000/svg" width="388" height="387" viewBox="0 0 388 387">
  <g id="Group_457" data-name="Group 457" transform="translate(0.334 -0.356)">
    <rect id="Rectangle_378" data-name="Rectangle 378" width="388" height="387" transform="translate(-0.334 0.356)" fill="none"/>
    <g id="location" transform="translate(50.212 50.213)">
      <circle id="Ellipse_260" data-name="Ellipse 260" cx="143.824" cy="143.824" r="143.824" transform="translate(0 0)" fill="#10b981"/>
      <g id="Group_375" data-name="Group 375" transform="translate(87.514 54.517)">
        <path id="Path_284" data-name="Path 284" d="M137.365,231.069h0a5.739,5.739,0,0,1-5.007-3.07L88.071,142.465c0-.129-.129-.273-.187-.4-9.957-23.2-9.282-46.626,1.851-64.273C99.39,62.468,115.559,53.573,135.4,52.77h5.323c19.038.775,34.69,9.383,44.058,24.246,11.563,18.321,12.094,43.04,1.435,67.974l-.2.43-43.642,82.622A5.739,5.739,0,0,1,137.365,231.069Zm-42.91-91.89,42.925,82.966,42.294-80.1c9.526-22.251,9.182-45.177-.961-61.245-8.077-12.8-21.678-20.214-38.277-20.889H135.7c-17.374.7-31.562,8.393-39.9,21.678C85.947,97.23,85.46,118.219,94.455,139.179Zm0,0Z" transform="translate(-80.873 -52.77)" fill="#fff"/>
        <path id="Path_285" data-name="Path 285" d="M128.716,127.692a27.976,27.976,0,1,1,27.976-27.976A27.976,27.976,0,0,1,128.716,127.692Zm0-48.778a20.8,20.8,0,1,0,20.8,20.8,20.8,20.8,0,0,0-20.8-20.8Z" transform="translate(-72.237 -44.525)" fill="#fff"/>
      </g>
    </g>
    <g id="Group_459" data-name="Group 459" transform="translate(256.197 256.356)">
      <g id="Ellipse_144" data-name="Ellipse 144" transform="translate(0.469)" fill="#fff" stroke="#045138" stroke-width="5">
        <circle cx="65.5" cy="65.5" r="65.5" stroke="none"/>
        <circle cx="65.5" cy="65.5" r="63" fill="none"/>
      </g>
      <text id="_1" data-name="1" transform="translate(49.469 91)" fill="#045138" font-size="68" font-family="Inter-SemiBold, Inter" font-weight="600"><tspan x="0" y="0">1</tspan></text>
    </g>
  </g>
</svg>
