<svg xmlns="http://www.w3.org/2000/svg" width="387.356" height="387" viewBox="0 0 387.356 387"><defs><style>.a{fill:none;}.b{fill:#10b981;}.c,.d{fill:#fff;}.d{stroke:#045138;stroke-width:5px;}.e{fill:#045138;}.f{stroke:none;}</style></defs><g transform="translate(0 -0.356)"><rect class="a" width="387" height="387" transform="translate(0.356 0.356)"/><g transform="translate(0 48.778)"><g transform="translate(0 0)"><rect class="b" width="165.114" height="13.529" rx="3.77" transform="translate(43.312 273.043)"/><rect class="b" width="94.745" height="13.529" rx="3.77" transform="translate(27.072 218.9)"/><rect class="b" width="81.201" height="13.529" rx="3.77" transform="translate(56.855 245.971)"/><rect class="b" width="46.024" height="13.529" rx="3.77" transform="translate(0 245.971)"/><path class="b" d="M179.144,20.509A143.465,143.465,0,0,0,49.681,225.851H85.806a5.409,5.409,0,0,1,5.423,5.409v2.712a5.409,5.409,0,0,1-5.423,5.409H57.113a145.772,145.772,0,0,0,9.5,13.529h8.407a5.409,5.409,0,0,1,5.409,5.423v2.7a5.409,5.409,0,0,1-2.511,4.562,142.809,142.809,0,0,0,16.857,14.347h50.615a5.423,5.423,0,0,1,5.423,5.423v2.711a5.423,5.423,0,0,1-5.423,5.423H117.425A143.465,143.465,0,1,0,179.115,20.48Z" transform="translate(14.348 -20.48)"/><path class="b" d="M6.223,156.08H41.4a5.409,5.409,0,0,1,5.423,5.409h0a5.423,5.423,0,0,1-5.423,5.423H6.223A5.423,5.423,0,0,1,.8,161.489h0a5.409,5.409,0,0,1,5.423-5.409Z" transform="translate(-0.8 38.459)"/><path class="a" d="M6.223,156.08H41.4a5.409,5.409,0,0,1,5.423,5.409h0a5.423,5.423,0,0,1-5.423,5.423H6.223A5.423,5.423,0,0,1,.8,161.489h0a5.409,5.409,0,0,1,5.423-5.409Z" transform="translate(340.056 38.459)"/></g><g transform="translate(72.134 66.353)"><path class="c" d="M286.249,154.133H56.1a5.021,5.021,0,0,1,0-10.043H286.249a5.021,5.021,0,1,1,0,10.043Z" transform="translate(-51.08 -33.105)"/><path class="c" d="M137.231,92.191a5.021,5.021,0,0,1-5.021-5.021V73.641a5.021,5.021,0,0,1,10.043,0V87.17A5.021,5.021,0,0,1,137.231,92.191Z" transform="translate(-15.817 -65.909)"/><path class="c" d="M154.863,76.773H127.791a5.021,5.021,0,0,1,0-10.043h27.072a5.021,5.021,0,1,1,0,10.043Z" transform="translate(-19.92 -66.73)"/><path class="c" d="M259.209,182.066h-.086a5.007,5.007,0,0,1-4.935-5.107v-3a87.93,87.93,0,0,0-87.8-86.323h-1.521a87.916,87.916,0,0,0-86.309,89.307,5.022,5.022,0,1,1-10.043.172,97.865,97.865,0,1,1,195.7-3.343c0,1.119,0,2.238,0,3.343a5.007,5.007,0,0,1-5.007,4.95Z" transform="translate(-43.508 -62.014)"/></g></g><g transform="translate(256.675 256.356)"><g class="d" transform="translate(-0.318)"><circle class="f" cx="65.5" cy="65.5" r="65.5"/><circle class="a" cx="65.5" cy="65.5" r="63"/></g><path class="e" d="M22.143.676a22.709,22.709,0,0,1-9.261-1.787A15.49,15.49,0,0,1,6.5-6.085,12.894,12.894,0,0,1,4.009-13.45h9.08a5.956,5.956,0,0,0,1.328,3.489,7.9,7.9,0,0,0,3.212,2.306,11.75,11.75,0,0,0,4.491.821,11.3,11.3,0,0,0,4.709-.93,7.652,7.652,0,0,0,3.212-2.6A6.427,6.427,0,0,0,31.175-14.2a6.67,6.67,0,0,0-1.159-3.96,7.763,7.763,0,0,0-3.417-2.68,13.5,13.5,0,0,0-5.373-.966H16.855v-6.906h4.371a10.744,10.744,0,0,0,4.528-.893,7.28,7.28,0,0,0,3.055-2.523,6.415,6.415,0,0,0,1.087-3.779,6.712,6.712,0,0,0-.93-3.658,6.481,6.481,0,0,0-2.68-2.427,8.886,8.886,0,0,0-4.045-.869,10.631,10.631,0,0,0-4.2.821,7.691,7.691,0,0,0-3.115,2.33,5.992,5.992,0,0,0-1.256,3.586H5.047a12.556,12.556,0,0,1,2.4-7.3,15.47,15.47,0,0,1,6.17-4.926,20.531,20.531,0,0,1,8.669-1.775A18.875,18.875,0,0,1,30.9-48.283a14.116,14.116,0,0,1,5.663,4.962,12.458,12.458,0,0,1,2,6.882,10.152,10.152,0,0,1-2.451,7,11.626,11.626,0,0,1-6.484,3.695v.386a12.618,12.618,0,0,1,8,3.852A11.144,11.144,0,0,1,40.4-13.74a12.4,12.4,0,0,1-2.354,7.425,15.749,15.749,0,0,1-6.472,5.131A22.688,22.688,0,0,1,22.143.676Z" transform="translate(43.682 91)"/></g></g></svg>