<svg xmlns="http://www.w3.org/2000/svg" width="388" height="387" viewBox="0 0 388 387"><defs><style>.a{fill:none;}.b{fill:#10b981;}.c,.d{fill:#fff;}.d{stroke:#045138;stroke-width:5px;}.e{fill:#045138;}.f{stroke:none;}</style></defs><g transform="translate(0.334 -0.356)"><rect class="a" width="388" height="387" transform="translate(-0.334 0.356)"/><g transform="translate(50.212 50.213)"><circle class="b" cx="143.824" cy="143.824" r="143.824" transform="translate(0 0)"/><g transform="translate(87.514 54.517)"><path class="c" d="M137.365,231.069h0a5.739,5.739,0,0,1-5.007-3.07L88.071,142.465c0-.129-.129-.273-.187-.4-9.957-23.2-9.282-46.626,1.851-64.273C99.39,62.468,115.559,53.573,135.4,52.77h5.323c19.038.775,34.69,9.383,44.058,24.246,11.563,18.321,12.094,43.04,1.435,67.974l-.2.43-43.642,82.622A5.739,5.739,0,0,1,137.365,231.069Zm-42.91-91.89,42.925,82.966,42.294-80.1c9.526-22.251,9.182-45.177-.961-61.245-8.077-12.8-21.678-20.214-38.277-20.889H135.7c-17.374.7-31.562,8.393-39.9,21.678C85.947,97.23,85.46,118.219,94.455,139.179Zm0,0Z" transform="translate(-80.873 -52.77)"/><path class="c" d="M128.716,127.692a27.976,27.976,0,1,1,27.976-27.976A27.976,27.976,0,0,1,128.716,127.692Zm0-48.778a20.8,20.8,0,1,0,20.8,20.8,20.8,20.8,0,0,0-20.8-20.8Z" transform="translate(-72.237 -44.525)"/></g></g><g transform="translate(256.197 256.356)"><g class="d" transform="translate(0.469)"><circle class="f" cx="65.5" cy="65.5" r="65.5"/><circle class="a" cx="65.5" cy="65.5" r="63"/></g><path class="e" d="M24.51-49.455V0H15.551V-40.737h-.29L3.695-33.348v-8.21l12.291-7.9Z" transform="translate(49.469 91)"/></g></g></svg>